<svg xmlns="http://www.w3.org/2000/svg" width="74.715" height="71.445" viewBox="0 0 74.715 71.445">
  <g id="logo-dhys-group-white" transform="translate(0 0)">
    <g id="Gruppe_2420" data-name="Gruppe 2420" transform="translate(10.067 20.034)">
      <path id="Pfad_1166" data-name="Pfad 1166" d="M47.412,49.716V45.655h.013l1.5,4.061h.405l1.492-4.061h.012v4.061h.429V45.163h-.65l-1.467,4.016h-.013L47.64,45.163h-.657v4.554Z" transform="translate(-36.116 -45.074)" fill="#fff"/>
      <g id="Gruppe_2419" data-name="Gruppe 2419" transform="translate(15.926)">
        <path id="Pfad_1167" data-name="Pfad 1167" d="M58.741,49.33a1.772,1.772,0,0,1,.11-.442,1.384,1.384,0,0,1,.215-.369.992.992,0,0,1,.332-.251,1.011,1.011,0,0,1,.443-.095,1.072,1.072,0,0,1,.45.091.9.9,0,0,1,.325.249,1.091,1.091,0,0,1,.2.368,1.514,1.514,0,0,1,.065.449Zm2.542.317a2.521,2.521,0,0,0-.172-.994,1.317,1.317,0,0,0-.5-.612,1.532,1.532,0,0,0-1.405-.071,1.394,1.394,0,0,0-.473.374,1.722,1.722,0,0,0-.3.553,2.214,2.214,0,0,0-.1.674,2.444,2.444,0,0,0,.087.675,1.563,1.563,0,0,0,.272.544,1.222,1.222,0,0,0,.468.362,1.632,1.632,0,0,0,.679.132,1.669,1.669,0,0,0,.547-.084,1.209,1.209,0,0,0,.4-.23,1.365,1.365,0,0,0,.282-.346,2.1,2.1,0,0,0,.183-.433h-.424a1.008,1.008,0,0,1-.2.409.922.922,0,0,1-.344.254,1.118,1.118,0,0,1-.451.088,1.1,1.1,0,0,1-.481-.1.965.965,0,0,1-.344-.279,1.206,1.206,0,0,1-.208-.412,1.708,1.708,0,0,1-.068-.5Z" transform="translate(-58.336 -46.554)" fill="#fff"/>
        <path id="Pfad_1168" data-name="Pfad 1168" d="M66.876,49.432a2.241,2.241,0,0,1,.012-.224,2.2,2.2,0,0,1,.033-.24,1.7,1.7,0,0,1,.067-.231.818.818,0,0,1,.1-.191.918.918,0,0,1,.742-.372.823.823,0,0,1,.42.092.5.5,0,0,1,.218.262,1.12,1.12,0,0,1,.064.4V51.2h.379V49.432c0-.07,0-.144.011-.224a2.213,2.213,0,0,1,.035-.24,1.476,1.476,0,0,1,.066-.231.819.819,0,0,1,.1-.191.918.918,0,0,1,.74-.372.829.829,0,0,1,.421.092.5.5,0,0,1,.218.262,1.093,1.093,0,0,1,.062.4V51.2h.379V49.129a2.779,2.779,0,0,0-.034-.481,1.161,1.161,0,0,0-.141-.414.738.738,0,0,0-.307-.292,1.159,1.159,0,0,0-.536-.109,1.337,1.337,0,0,0-.438.069,1.075,1.075,0,0,0-.361.211,1.157,1.157,0,0,0-.268.352,1.443,1.443,0,0,0-.124-.246.782.782,0,0,0-.451-.337,1.406,1.406,0,0,0-.388-.049,1.223,1.223,0,0,0-.407.067,1.144,1.144,0,0,0-.35.2,1.092,1.092,0,0,0-.254.317h-.013v-.492H66.5V51.2h.379Z" transform="translate(-62.861 -46.554)" fill="#fff"/>
        <path id="Pfad_1169" data-name="Pfad 1169" d="M78.912,48.066a1.773,1.773,0,0,1,.078-.528,1.368,1.368,0,0,1,.218-.436,1.026,1.026,0,0,1,.349-.3.967.967,0,0,1,.463-.111,1.079,1.079,0,0,1,.509.115.986.986,0,0,1,.355.318,1.387,1.387,0,0,1,.2.474,2.145,2.145,0,0,1,.052.579,1.725,1.725,0,0,1-.088.547,1.154,1.154,0,0,1-.235.4.989.989,0,0,1-.352.248,1.126,1.126,0,0,1-.443.085,1.03,1.03,0,0,1-.475-.108.983.983,0,0,1-.346-.295,1.394,1.394,0,0,1-.213-.442,2,2,0,0,1-.073-.553m0,1.075h.013a1.143,1.143,0,0,0,.213.286,1.337,1.337,0,0,0,.282.207,1.442,1.442,0,0,0,.322.127,1.281,1.281,0,0,0,.322.043,1.612,1.612,0,0,0,.676-.132,1.212,1.212,0,0,0,.459-.366,1.585,1.585,0,0,0,.262-.544,2.612,2.612,0,0,0,.082-.677,2.428,2.428,0,0,0-.057-.532,1.88,1.88,0,0,0-.17-.474,1.437,1.437,0,0,0-.288-.381,1.259,1.259,0,0,0-.412-.253,1.512,1.512,0,0,0-.535-.093,1.481,1.481,0,0,0-.455.071,1.38,1.38,0,0,0-.407.206,1.19,1.19,0,0,0-.308.336v-1.8h-.379v4.552h.379Z" transform="translate(-69.534 -45.074)" fill="#fff"/>
        <path id="Pfad_1170" data-name="Pfad 1170" d="M87.128,49.33a1.811,1.811,0,0,1,.109-.442,1.375,1.375,0,0,1,.217-.369.983.983,0,0,1,.331-.251,1.02,1.02,0,0,1,.443-.095,1.078,1.078,0,0,1,.45.091.893.893,0,0,1,.324.249,1.067,1.067,0,0,1,.2.368,1.514,1.514,0,0,1,.066.449Zm2.542.317a2.506,2.506,0,0,0-.171-.994,1.326,1.326,0,0,0-.5-.612,1.416,1.416,0,0,0-.775-.209,1.438,1.438,0,0,0-.63.137,1.388,1.388,0,0,0-.472.374,1.713,1.713,0,0,0-.3.553,2.187,2.187,0,0,0-.1.674,2.532,2.532,0,0,0,.086.675,1.581,1.581,0,0,0,.274.544,1.214,1.214,0,0,0,.467.362,1.63,1.63,0,0,0,.677.132,1.673,1.673,0,0,0,.547-.084,1.225,1.225,0,0,0,.4-.23,1.394,1.394,0,0,0,.282-.346,2.148,2.148,0,0,0,.182-.433H89.22a1.008,1.008,0,0,1-.2.409.911.911,0,0,1-.344.254,1.118,1.118,0,0,1-.452.088,1.09,1.09,0,0,1-.479-.1.968.968,0,0,1-.346-.279,1.221,1.221,0,0,1-.207-.412,1.68,1.68,0,0,1-.067-.5Z" transform="translate(-74.075 -46.554)" fill="#fff"/>
        <path id="Pfad_1171" data-name="Pfad 1171" d="M95.419,49.59a2.675,2.675,0,0,1,.047-.523,1.29,1.29,0,0,1,.173-.434.815.815,0,0,1,.332-.291,1.159,1.159,0,0,1,.529-.1v-.412a1.5,1.5,0,0,0-.476.066.821.821,0,0,0-.346.222,1.3,1.3,0,0,0-.247.414h-.012V47.92h-.38V51.2h.38Z" transform="translate(-78.685 -46.553)" fill="#fff"/>
        <path id="Pfad_1172" data-name="Pfad 1172" d="M104.7,51.284a1.551,1.551,0,0,0,.625-.125,1.33,1.33,0,0,0,.479-.349,1.574,1.574,0,0,0,.306-.545,2.2,2.2,0,0,0,.108-.707,2.327,2.327,0,0,0-.093-.675,1.58,1.58,0,0,0-.281-.549,1.3,1.3,0,0,0-.474-.368,1.586,1.586,0,0,0-.67-.135,1.565,1.565,0,0,0-.663.135,1.334,1.334,0,0,0-.476.37,1.629,1.629,0,0,0-.283.549,2.282,2.282,0,0,0-.1.673,2.166,2.166,0,0,0,.12.75,1.5,1.5,0,0,0,.327.538,1.372,1.372,0,0,0,.482.325,1.671,1.671,0,0,0,.589.114m1.115-1.727a2.144,2.144,0,0,1-.062.512,1.458,1.458,0,0,1-.2.444.973.973,0,0,1-.346.312,1.094,1.094,0,0,1-.511.118,1.143,1.143,0,0,1-.48-.1.969.969,0,0,1-.35-.286,1.3,1.3,0,0,1-.21-.437,2.2,2.2,0,0,1-.011-1.076,1.4,1.4,0,0,1,.2-.442.96.96,0,0,1,.346-.31,1.047,1.047,0,0,1,.51-.117,1.134,1.134,0,0,1,.513.108.92.92,0,0,1,.344.295,1.321,1.321,0,0,1,.194.441,2.43,2.43,0,0,1,.065.542" transform="translate(-83.202 -46.553)" fill="#fff"/>
        <path id="Pfad_1173" data-name="Pfad 1173" d="M111.308,46.646V49.6h.381V46.646h.632V46.33h-.632v-.405a1.741,1.741,0,0,1,.009-.222.625.625,0,0,1,.047-.2.3.3,0,0,1,.12-.143.425.425,0,0,1,.229-.054.843.843,0,0,1,.112.008c.038,0,.078.014.115.023v-.347a1.11,1.11,0,0,0-.153-.02c-.052,0-.106-.006-.163-.006a.725.725,0,0,0-.4.1.574.574,0,0,0-.224.293,1.333,1.333,0,0,0-.069.451v.518h-.486v.316Z" transform="translate(-87.436 -44.963)" fill="#fff"/>
      </g>
      <path id="Pfad_1174" data-name="Pfad 1174" d="M88.4,75.215h3.412V71.989l4.544-7.01H92.4l-2.293,4.344-2.294-4.344H83.859l4.543,7.01Z" transform="translate(-56.561 -56.061)" fill="#fff"/>
      <path id="Pfad_1175" data-name="Pfad 1175" d="M64.134,75.215h3.412V64.979H64.134v3.655H58.959V64.979H55.548V75.215h3.411V70.928h5.175Z" transform="translate(-40.864 -56.061)" fill="#fff"/>
      <path id="Pfad_1176" data-name="Pfad 1176" d="M123.492,67.582a3.089,3.089,0,0,0-.531-1.539,3.26,3.26,0,0,0-1.239-1.023,6.543,6.543,0,0,0-1.9-.572,15.514,15.514,0,0,0-2.5-.177,11.013,11.013,0,0,0-2.276.209,5.416,5.416,0,0,0-1.534.548,3.153,3.153,0,0,0-.926.77,2.6,2.6,0,0,0-.459.872,3.229,3.229,0,0,0,.167,2.21,2.425,2.425,0,0,0,.941.987,4.563,4.563,0,0,0,1.695.554c1.429.231,3.681.527,4.243.683,1.6-.135,3.095-.335,4.593-.487a2.263,2.263,0,0,0-.215-.459,2.523,2.523,0,0,0-1.048-.928,5.768,5.768,0,0,0-1.639-.5l-.618-.1c-.246-.038-.509-.077-.8-.124s-.581-.088-.881-.136-.585-.09-.867-.131l-.763-.121c-.226-.032-.413-.063-.561-.087a1.185,1.185,0,0,1-.572-.22.511.511,0,0,1-.188-.411.828.828,0,0,1,.46-.755,2.783,2.783,0,0,1,1.318-.248,4.319,4.319,0,0,1,1.253.152,1.5,1.5,0,0,1,.7.416,1.171,1.171,0,0,1,.271.622Z" transform="translate(-72.168 -55.667)" fill="#fff"/>
      <path id="Pfad_1177" data-name="Pfad 1177" d="M108,73.927a9.325,9.325,0,0,0,6.914,5.464,6.352,6.352,0,0,1-3.7-.686c2.77,2.905,8.776,1.9,10.409-1.731-5.278.536-9.927,1.806-13.622-3.047" transform="translate(-69.945 -61.021)" fill="#fff"/>
      <path id="Pfad_1178" data-name="Pfad 1178" d="M22.594,75.215h8.725a6.207,6.207,0,0,0,1.467-.166c2.464-.608,3.407-2.841,3.407-5.015,0-2.3-.974-4.327-3.408-4.9a6.466,6.466,0,0,0-1.466-.157H22.594Zm3.412-7.757h4c1.4,0,2.864.366,2.864,2.576a2.343,2.343,0,0,1-2.592,2.578H26.006Z" transform="translate(-22.594 -56.06)" fill="#fff"/>
      <path id="Pfad_1179" data-name="Pfad 1179" d="M53.621,100.334a4.658,4.658,0,0,1-.073.794,2.684,2.684,0,0,1-.245.725,2.286,2.286,0,0,1-.435.6,2.242,2.242,0,0,1-.551.394,2.48,2.48,0,0,1-.613.222,2.964,2.964,0,0,1-.613.067,2.653,2.653,0,0,1-.925-.16,2.416,2.416,0,0,1-.741-.444,2.689,2.689,0,0,1-.546-.666,3.254,3.254,0,0,1-.336-.833,3.837,3.837,0,0,1-.116-.938,5.869,5.869,0,0,1,.158-1.428,3.221,3.221,0,0,1,.492-1.109,2.227,2.227,0,0,1,.857-.72,2.876,2.876,0,0,1,1.249-.254,2.706,2.706,0,0,1,.788.115,2.364,2.364,0,0,1,.683.339,2.132,2.132,0,0,1,.526.544,2.189,2.189,0,0,1,.31.735H54.2a3.059,3.059,0,0,0-.4-1.026,2.564,2.564,0,0,0-.68-.727,2.948,2.948,0,0,0-.91-.43A4.028,4.028,0,0,0,51.13,96a3.809,3.809,0,0,0-1.243.192,2.876,2.876,0,0,0-.954.535,3.01,3.01,0,0,0-.672.823,4.1,4.1,0,0,0-.4,1.053,6.025,6.025,0,0,0,.111,2.938,3.38,3.38,0,0,0,.67,1.221,2.792,2.792,0,0,0,1.016.732,3.344,3.344,0,0,0,1.287.241,3.9,3.9,0,0,0,1.242-.18,2.6,2.6,0,0,0,.888-.5,3.01,3.01,0,0,0,.615-.765v1.255h.594v-3.8H51.141v.592Z" transform="translate(-36.531 -73.257)" fill="#fff"/>
      <path id="Pfad_1180" data-name="Pfad 1180" d="M67.236,103.574a4.044,4.044,0,0,1,.079-.844,2.058,2.058,0,0,1,.277-.7,1.324,1.324,0,0,1,.536-.471,1.83,1.83,0,0,1,.854-.161v-.663a2.406,2.406,0,0,0-.768.106,1.3,1.3,0,0,0-.557.357,2.051,2.051,0,0,0-.4.669h-.021v-.99h-.612v5.287h.612Z" transform="translate(-47.005 -75.886)" fill="#fff"/>
      <path id="Pfad_1181" data-name="Pfad 1181" d="M76.008,106.309a2.462,2.462,0,0,0,1.007-.2,2.143,2.143,0,0,0,.774-.564,2.543,2.543,0,0,0,.5-.879,3.585,3.585,0,0,0,.175-1.142,3.861,3.861,0,0,0-.15-1.09,2.592,2.592,0,0,0-.455-.884,2.07,2.07,0,0,0-.764-.593,2.541,2.541,0,0,0-1.081-.218,2.515,2.515,0,0,0-1.072.218,2.126,2.126,0,0,0-.764.6,2.6,2.6,0,0,0-.46.887,3.705,3.705,0,0,0-.154,1.085,3.553,3.553,0,0,0,.195,1.211,2.411,2.411,0,0,0,.525.868,2.3,2.3,0,0,0,.779.525,2.685,2.685,0,0,0,.952.183m1.8-2.786a3.349,3.349,0,0,1-.1.827,2.26,2.26,0,0,1-.316.716,1.568,1.568,0,0,1-.558.5,1.733,1.733,0,0,1-.823.191,1.805,1.805,0,0,1-.776-.164,1.555,1.555,0,0,1-.563-.462,2.073,2.073,0,0,1-.342-.705,3.528,3.528,0,0,1-.014-1.737,2.165,2.165,0,0,1,.315-.713,1.571,1.571,0,0,1,.557-.5,1.719,1.719,0,0,1,.824-.188,1.846,1.846,0,0,1,.827.172,1.483,1.483,0,0,1,.555.478,2.1,2.1,0,0,1,.313.711,3.725,3.725,0,0,1,.1.874" transform="translate(-50.85 -75.886)" fill="#fff"/>
      <path id="Pfad_1182" data-name="Pfad 1182" d="M91.223,103.936a2.866,2.866,0,0,1-.108.8,1.956,1.956,0,0,1-.317.635,1.464,1.464,0,0,1-.508.413,1.537,1.537,0,0,1-.677.15,1.639,1.639,0,0,1-.78-.163.982.982,0,0,1-.439-.477,1.874,1.874,0,0,1-.14-.769v-3.469H87.64v3.48a2.863,2.863,0,0,0,.1.768,1.637,1.637,0,0,0,.318.619,1.426,1.426,0,0,0,.577.411,2.384,2.384,0,0,0,.888.15,2.089,2.089,0,0,0,.613-.086,1.81,1.81,0,0,0,.466-.216,2.22,2.22,0,0,0,.351-.283c.1-.1.195-.2.274-.293v.735h.614v-5.286h-.614Z" transform="translate(-58.657 -76.064)" fill="#fff"/>
      <path id="Pfad_1183" data-name="Pfad 1183" d="M101.72,103.544a3.234,3.234,0,0,1,.116-.892,2.206,2.206,0,0,1,.344-.713,1.588,1.588,0,0,1,.561-.477,1.661,1.661,0,0,1,.764-.172,1.844,1.844,0,0,1,.716.137,1.624,1.624,0,0,1,.571.4,1.872,1.872,0,0,1,.379.651,2.767,2.767,0,0,1,.141.883,3.45,3.45,0,0,1-.084.934,2.223,2.223,0,0,1-.326.763,1.573,1.573,0,0,1-.572.512,1.749,1.749,0,0,1-.825.188,1.6,1.6,0,0,1-.748-.177,1.674,1.674,0,0,1-.561-.482,2.243,2.243,0,0,1-.354-.7,2.874,2.874,0,0,1-.122-.851m0,1.776a1.912,1.912,0,0,0,.5.543,2.259,2.259,0,0,0,.656.332,2.424,2.424,0,0,0,.735.114,2.4,2.4,0,0,0,.864-.148,2.039,2.039,0,0,0,.664-.409,2.315,2.315,0,0,0,.464-.614,3.011,3.011,0,0,0,.275-.765,4.005,4.005,0,0,0,.091-.859,4.178,4.178,0,0,0-.133-1.093,2.532,2.532,0,0,0-.421-.881,1.976,1.976,0,0,0-.742-.59,2.611,2.611,0,0,0-1.093-.213,2.078,2.078,0,0,0-.52.07,2.265,2.265,0,0,0-.518.206,2.1,2.1,0,0,0-.455.335,1.8,1.8,0,0,0-.343.461h-.02v-.929h-.612v7.37h.612Z" transform="translate(-66.124 -75.886)" fill="#fff"/>
    </g>
    <path id="Pfad_1184" data-name="Pfad 1184" d="M4.576,33.587A30.47,30.47,0,0,1,6.3,21.084a31.69,31.69,0,0,1,6.733-10.991A31.354,31.354,0,0,1,23.754,2.579a33.8,33.8,0,0,1,26.018.049A32.791,32.791,0,0,1,55.65,5.886a33.223,33.223,0,0,1,12.11,15.78,33.6,33.6,0,0,1-1.221,26.059,33.314,33.314,0,0,1-32.3,18.88A36.991,36.991,0,0,1,3.647,45.629,40.8,40.8,0,0,1,0,33.587,38.98,38.98,0,0,0,4.716,45.044a40.905,40.905,0,0,0,7.934,9.263A41.339,41.339,0,0,0,17.5,57.924a39.954,39.954,0,0,0,5.325,2.816,33.333,33.333,0,0,0,11.588,2.751A29.613,29.613,0,0,0,63.421,23.3a29.229,29.229,0,0,0-6.182-9.707,30.207,30.207,0,0,0-20.6-9.421A29.5,29.5,0,0,0,25.128,6.031a32.012,32.012,0,0,0-10.12,6.075,31.233,31.233,0,0,0-7.256,9.588A32.64,32.64,0,0,0,4.576,33.587Z" transform="translate(0 0)" fill="#fff"/>
    <path id="Pfad_1185" data-name="Pfad 1185" d="M56.5,4.495q1.957.685,3.857,1.554a34.534,34.534,0,0,1,3.676,2,32.721,32.721,0,0,1,6.544,5.3A33.667,33.667,0,0,1,78.8,28.187a39.509,39.509,0,0,1,.538,17.244,38.959,38.959,0,0,1-1.1,4.265A35.023,35.023,0,0,1,76.587,53.8a33.893,33.893,0,0,1-4.8,7.461c-.489.559-.958,1.138-1.492,1.655l-.783.792-.819.756c-.536.516-1.125.97-1.69,1.451-.581.463-1.176.906-1.776,1.343A37.547,37.547,0,0,1,57.394,71.4a39.552,39.552,0,0,1-17.231,2.419,50.821,50.821,0,0,1-16.505-4.236,51.239,51.239,0,0,1-14.045-9.1c6.815,5.807,38,21.142,58.756-2.16a34.112,34.112,0,0,0,7.075-13.814,36.245,36.245,0,0,0,.523-15.706,32.118,32.118,0,0,0-6.729-14.277,31.123,31.123,0,0,0-2.75-2.943,33.124,33.124,0,0,0-3.053-2.677c-1.076-.832-2.2-1.6-3.352-2.352S57.721,5.155,56.5,4.495Z" transform="translate(-5.329 -2.492)" fill="#fff"/>
  </g>
</svg>
